<svg width="22" height="22" viewBox="0 0 22 22" fill="none" xmlns="http://www.w3.org/2000/svg">
<path fill-rule="evenodd" clip-rule="evenodd" d="M3.19999 4.99999C3.19999 4.88953 3.11044 4.79999 2.99999 4.79999H0.999988C0.889531 4.79999 0.799988 4.88953 0.799988 4.99999V19C0.799988 20.2104 1.78953 21.2 2.99999 21.2H17C17.1104 21.2 17.2 21.1104 17.2 21V19C17.2 18.8895 17.1104 18.8 17 18.8H3.19999V4.99999ZM0.999988 19C0.999988 19.275 1.05624 19.5375 1.1578 19.7766C1.05624 19.5375 1 19.275 1 19V5H2.99999V4.99999H0.999988V19ZM14 4V7.99999H14V4H14ZM18 7.99999V9.99999H14V14H12V14H14V10H18L18 7.99999ZM12 10V9.99999H8V10H12ZM14 8.19999H17.8V9.79999H14C13.8895 9.79999 13.8 9.88953 13.8 9.99999V13.8H12.2V9.99999C12.2 9.88953 12.1104 9.79999 12 9.79999H8.19999V8.19999H12C12.1104 8.19999 12.2 8.11044 12.2 7.99999V4.19999H13.8V7.99999C13.8 8.11044 13.8895 8.19999 14 8.19999ZM19 0.799988H6.99999C5.78953 0.799988 4.79999 1.78953 4.79999 2.99999V15C4.79999 16.2104 5.78953 17.2 6.99999 17.2H19C20.2104 17.2 21.2 16.2104 21.2 15V2.99999C21.2 1.78953 20.2104 0.799988 19 0.799988ZM19 0.999988H6.99999C5.89999 0.999988 4.99999 1.89999 4.99999 2.99999V15C4.99999 15.275 5.05624 15.5375 5.1578 15.7766C5.05624 15.5375 5 15.275 5 15V3C5 1.9 5.9 1 7 1H19C19.2161 1 19.4245 1.03473 19.6199 1.0989C19.4245 1.03473 19.2161 0.999988 19 0.999988Z" fill="white"/>
</svg>
