<svg width="28" height="17" viewBox="0 0 28 17" fill="none" xmlns="http://www.w3.org/2000/svg">
<path fill-rule="evenodd" clip-rule="evenodd" d="M24.9938 16.8858C25.0564 16.9601 25.1437 17.0015 25.2345 17L27.6793 16.9584C27.8086 16.9562 27.9246 16.8677 27.9746 16.733C28.0247 16.5983 27.9994 16.4429 27.9102 16.3371L14.2358 0.114171C14.1743 0.0412649 14.0891 0 14 0C13.9109 0 13.8257 0.0412649 13.7642 0.114171L0.0897895 16.3371C0.000601882 16.4429 -0.0246777 16.5983 0.0253846 16.733C0.0754469 16.8677 0.191357 16.9562 0.320686 16.9584L2.76551 17C2.85632 17.0015 2.94358 16.9601 3.00621 16.8858L14 3.84314L24.9938 16.8858Z" fill="#5A9B32"/>
</svg>
