<svg width="16" height="16" viewBox="0 0 16 16" fill="none" xmlns="http://www.w3.org/2000/svg">
<path fill-rule="evenodd" clip-rule="evenodd" d="M3.11711 0.292893C2.72658 -0.0976311 2.09342 -0.0976311 1.70289 0.292893L0.292893 1.70289C-0.0976311 2.09342 -0.0976311 2.72658 0.292893 3.11711L5.17579 8L0.292893 12.8829C-0.0976311 13.2734 -0.0976311 13.9066 0.292893 14.2971L1.70289 15.7071C2.09342 16.0976 2.72658 16.0976 3.11711 15.7071L8 10.8242L12.8829 15.7071C13.2734 16.0976 13.9066 16.0976 14.2971 15.7071L15.7071 14.2971C16.0976 13.9066 16.0976 13.2734 15.7071 12.8829L10.8242 8L15.7071 3.11711C16.0976 2.72658 16.0976 2.09342 15.7071 1.70289L14.2971 0.292893C13.9066 -0.0976311 13.2734 -0.0976311 12.8829 0.292893L8 5.17579L3.11711 0.292893Z" fill="#C0D475"/>
</svg>
