<svg width="24" height="18" viewBox="0 0 24 18" fill="none" xmlns="http://www.w3.org/2000/svg">
<path d="M18.8876 0.831656H15.1141C14.8177 0.831656 14.5751 1.06581 14.5751 1.35201V3.08651C14.5751 3.37271 14.8177 3.60686 15.1141 3.60686H18.8876C19.6827 3.60686 20.3251 4.22695 20.3251 4.99447V13.3201C20.3251 14.0876 19.6827 14.7077 18.8876 14.7077H15.1141C14.8177 14.7077 14.5751 14.9419 14.5751 15.2281V16.9626C14.5751 17.2488 14.8177 17.4829 15.1141 17.4829H18.8876C21.2684 17.4829 23.2001 15.6183 23.2001 13.3201V4.99447C23.2001 2.69625 21.2684 0.831656 18.8876 0.831656ZM16.7762 9.54755L9.22937 16.8325C8.55554 17.4829 7.38757 17.0276 7.38757 16.0953V11.9325H1.2782C0.680737 11.9325 0.200073 11.4685 0.200073 10.8918V6.72897C0.200073 6.15225 0.680737 5.68827 1.2782 5.68827H7.38757V1.52546C7.38757 0.593161 8.55554 0.137854 9.22937 0.788292L16.7762 8.07322C17.194 8.48083 17.194 9.13994 16.7762 9.54755Z" fill="white"/>
</svg>
