<svg width="25" height="19" viewBox="0 0 25 19" fill="none" xmlns="http://www.w3.org/2000/svg">
<path d="M24.2676 10.33L16.0645 18.5331C15.332 19.2656 14.0625 18.7529 14.0625 17.7031V13.0156H7.42188C6.77246 13.0156 6.25 12.4931 6.25 11.8437V7.15619C6.25 6.50678 6.77246 5.98431 7.42188 5.98431H14.0625V1.29681C14.0625 0.251893 15.3271 -0.265685 16.0645 0.466737L24.2676 8.66986C24.7217 9.12885 24.7217 9.87103 24.2676 10.33ZM9.375 18.289V16.3359C9.375 16.0136 9.11133 15.7499 8.78906 15.7499H4.6875C3.82324 15.7499 3.125 15.0517 3.125 14.1874V4.81244C3.125 3.94818 3.82324 3.24994 4.6875 3.24994H8.78906C9.11133 3.24994 9.375 2.98627 9.375 2.664V0.710877C9.375 0.388612 9.11133 0.12494 8.78906 0.12494H4.6875C2.09961 0.12494 0 2.22455 0 4.81244V14.1874C0 16.7753 2.09961 18.8749 4.6875 18.8749H8.78906C9.11133 18.8749 9.375 18.6113 9.375 18.289Z" fill="white"/>
</svg>
