<svg width="26" height="26" viewBox="0 0 26 26" fill="none" xmlns="http://www.w3.org/2000/svg">
<path d="M11.5598 2.54156L12.7985 1.30286C13.323 0.778361 14.1711 0.778361 14.69 1.30286L25.5371 12.1443C26.0615 12.6688 26.0615 13.5169 25.5371 14.0358L14.69 24.8828C14.1656 25.4073 13.3174 25.4073 12.7985 24.8828L11.5598 23.6441C11.0297 23.114 11.0409 22.2492 11.5821 21.7303L18.3057 15.3247H2.26956C1.52745 15.3247 0.93042 14.7277 0.93042 13.9856V12.2001C0.93042 11.458 1.52745 10.8609 2.26956 10.8609H18.3057L11.5821 4.45541C11.0353 3.93649 11.0242 3.07163 11.5598 2.54156Z" fill="white"/>
</svg>
