<svg width="30" height="35" viewBox="0 0 30 35" fill="none" xmlns="http://www.w3.org/2000/svg">
<path d="M20 0H10V3.33333H20V0ZM13.3333 21.6667H16.6667V11.6667H13.3333V21.6667ZM26.7167 10.65L29.0833 8.28333C28.3667 7.43333 27.5833 6.63333 26.7333 5.93333L24.3667 8.3C21.7833 6.23333 18.5333 5 15 5C6.71667 5 0 11.7167 0 20C0 28.2833 6.7 35 15 35C23.3 35 30 28.2833 30 20C30 16.4667 28.7667 13.2167 26.7167 10.65ZM15 31.6667C8.55 31.6667 3.33333 26.45 3.33333 20C3.33333 13.55 8.55 8.33333 15 8.33333C21.45 8.33333 26.6667 13.55 26.6667 20C26.6667 26.45 21.45 31.6667 15 31.6667Z" fill="white"/>
</svg>
